<?xml version="1.0" encoding="UTF-8" standalone="no"?>
<!DOCTYPE svg PUBLIC "-//W3C//DTD SVG 20010904//EN"
              "http://www.w3.org/TR/2001/REC-SVG-20010904/DTD/svg10.dtd">

<svg xmlns="http://www.w3.org/2000/svg"
     width="28.9561mm" height="28.4481mm"
     viewBox="0 0 342 336">
  <path id="選択範囲"
        fill="white" stroke="black" stroke-width="1"
        d="M 12.00,154.00
           C 15.02,116.68 31.47,79.56 58.01,53.01
             106.27,4.76 182.13,-7.00 243.00,23.25
             258.40,30.90 275.05,42.61 286.96,55.00
             316.94,86.19 329.04,121.75 331.91,164.00
             332.26,169.18 331.63,171.20 331.00,176.00
             331.00,176.00 331.00,184.00 331.00,184.00
             329.77,195.12 327.06,206.38 323.66,217.00
             318.28,233.75 308.49,252.25 297.55,266.00
             248.59,327.53 160.23,344.63 92.00,305.57
             72.95,294.67 58.78,282.23 45.21,265.00
             34.13,250.93 22.00,228.53 18.00,211.00
             18.00,211.00 60.00,227.85 60.00,227.85
             63.31,229.26 75.61,233.91 77.49,235.70
             80.40,238.44 79.88,242.88 85.36,251.00
             93.82,263.56 106.65,271.82 122.00,272.00
             136.94,272.17 149.06,266.64 158.67,255.00
             162.60,250.25 166.18,243.01 167.57,237.00
             167.57,237.00 169.99,224.46 169.99,224.46
             171.51,221.99 181.09,215.66 184.00,213.58
             184.00,213.58 218.00,189.31 218.00,189.31
             224.97,184.61 234.09,185.48 242.00,182.97
             257.73,177.99 271.14,166.76 278.63,152.00
             298.12,113.57 269.40,65.06 226.00,65.00
             226.00,65.00 222.00,65.00 222.00,65.00
             197.93,65.29 176.85,82.14 168.02,104.00
             163.94,114.09 164.28,123.80 162.91,127.00
             162.91,127.00 141.28,159.00 141.28,159.00
             138.59,162.86 128.62,178.27 125.70,179.98
             125.70,179.98 113.00,182.43 113.00,182.43
             108.90,183.58 99.70,188.11 97.00,188.01
             93.68,187.87 77.27,180.53 73.00,178.80
             73.00,178.80 12.00,154.00 12.00,154.00 Z
           M 219.00,85.44
           C 256.15,80.68 279.14,123.92 254.68,151.96
             251.04,156.12 246.02,159.43 241.00,161.69
             235.20,164.30 229.31,165.13 223.00,164.99
             194.45,164.34 176.44,133.55 188.32,108.00
             194.36,95.02 205.30,88.00 219.00,85.44 Z
           M 219.00,95.30
           C 213.72,96.33 210.37,97.66 206.01,100.93
             181.67,119.14 197.54,159.46 228.00,155.40
             256.67,151.57 263.58,117.16 243.99,101.39
             236.36,95.25 228.37,94.36 219.00,95.30 Z
           M 112.00,194.00
           C 116.29,193.43 117.49,193.05 122.00,193.00
             129.40,192.92 134.46,193.53 141.00,197.48
             146.11,200.56 150.05,204.75 152.88,210.00
             160.94,224.98 156.76,245.50 142.00,254.73
             126.71,264.29 100.41,260.80 94.00,242.00
             104.75,245.73 114.36,252.28 126.00,250.82
             142.78,248.71 152.00,228.04 143.52,214.00
             135.16,200.16 121.02,200.98 112.00,194.00 Z" />
</svg>
