<?xml version="1.0" standalone="no"?>
<!DOCTYPE svg PUBLIC "-//W3C//DTD SVG 20010904//EN"
 "http://www.w3.org/TR/2001/REC-SVG-20010904/DTD/svg10.dtd">
<svg version="1.0" xmlns="http://www.w3.org/2000/svg"
 width="1177.000000pt" height="462.000000pt" viewBox="0 0 1177.000000 462.000000"
 preserveAspectRatio="xMidYMid meet">

<g transform="translate(0.000000,462.000000) scale(0.100000,-0.100000)"
fill="#000000" stroke="none">
<path d="M0 2310 l0 -2310 5885 0 5885 0 0 2310 0 2310 -5885 0 -5885 0 0
-2310z m2468 1410 c322 -34 619 -155 858 -351 290 -236 485 -561 565 -939 31
-143 33 -436 5 -585 -53 -288 -191 -574 -375 -778 -301 -336 -692 -523 -1137
-544 -614 -29 -1192 304 -1487 857 -48 91 -120 274 -115 294 2 8 111 -33 305
-113 l302 -124 16 -51 c70 -214 287 -346 505 -307 210 38 345 190 375 424 l6
47 273 195 c263 188 275 195 321 195 130 0 269 64 380 175 87 87 133 164 160
270 21 79 21 234 0 309 -43 160 -159 303 -306 375 -139 68 -255 84 -397 55
-251 -52 -428 -242 -471 -507 l-16 -98 -185 -268 -185 -269 -79 -11 c-47 -6
-107 -24 -146 -42 l-67 -30 -354 146 c-195 81 -387 160 -428 177 l-73 31 6 68
c16 161 87 385 173 549 73 139 148 243 263 363 342 358 825 538 1308 487z
m545 -812 c151 -70 247 -232 234 -396 -7 -98 -39 -172 -104 -242 -196 -212
-529 -166 -657 91 -114 227 2 486 254 570 14 5 68 7 120 6 78 -2 105 -8 153
-29z m2379 -172 c58 -13 187 -66 227 -94 11 -8 5 -24 -29 -83 -75 -131 -58
-121 -135 -84 -85 41 -165 58 -253 53 -85 -4 -137 -37 -148 -93 -16 -85 20
-117 213 -185 254 -92 342 -151 378 -259 28 -85 18 -199 -25 -279 -79 -149
-242 -220 -475 -208 -117 6 -181 20 -285 62 -106 43 -103 34 -61 146 20 53 39
100 43 103 3 3 23 -1 44 -10 134 -58 300 -79 396 -51 91 26 129 90 96 161 -17
37 -58 59 -207 110 -226 77 -308 131 -358 232 -23 47 -28 71 -28 133 0 177 97
294 285 344 71 19 236 20 322 2z m5826 8 c17 -4 49 -22 71 -41 73 -62 79 -162
14 -234 -81 -90 -219 -74 -273 31 -46 90 -10 187 85 231 44 20 57 22 103 13z
m-4378 -124 l0 -110 -185 0 -185 0 0 -495 0 -495 -130 0 -130 0 0 495 0 495
-180 0 -180 0 0 110 0 110 495 0 495 0 0 -110z m1090 0 l0 -110 -280 0 -280 0
0 -135 0 -135 240 0 240 0 0 -110 0 -110 -240 0 -240 0 0 -140 0 -140 280 0
280 0 0 -110 0 -110 -410 0 -410 0 0 605 0 605 410 0 410 0 0 -110z m1155
-486 c127 -328 232 -600 233 -605 2 -5 -59 -9 -136 -9 l-139 0 -40 113 -40
112 -235 3 -235 2 -40 -112 -40 -113 -131 -3 c-73 -1 -132 1 -132 5 -1 4 100
277 222 605 l223 598 130 0 130 0 230 -596z m930 174 c108 -233 199 -426 203
-430 4 -4 93 185 199 420 l192 427 125 3 126 3 0 -606 0 -606 -122 3 -123 3
-3 360 -2 360 -160 -340 -159 -340 -77 0 -77 0 -156 334 -156 334 -3 -356 -2
-357 -125 0 -125 0 0 605 0 605 124 0 124 0 197 -422z m-8040 -472 c66 -30
132 -95 165 -161 22 -43 25 -64 25 -150 0 -85 -3 -107 -23 -146 -87 -170 -277
-239 -448 -164 -27 12 -67 37 -87 54 -35 31 -83 98 -76 106 2 2 51 -17 109
-42 93 -41 114 -46 180 -47 84 -1 118 13 173 68 50 50 71 101 71 176 0 125
-54 187 -229 260 -66 28 -121 53 -123 55 -2 2 16 8 40 14 64 15 162 5 223 -23z"/>
<path d="M2770 2827 c-133 -37 -210 -136 -218 -277 -4 -67 -1 -85 20 -132 78
-170 287 -229 443 -126 59 39 101 101 121 178 18 71 13 121 -20 195 -57 127
-213 200 -346 162z"/>
<path d="M11142 2710 c-126 -29 -132 -213 -9 -259 39 -15 63 -14 104 6 91 43
99 186 14 235 -36 21 -70 27 -109 18z m83 -60 c19 -16 19 -54 0 -70 -13 -11
-13 -16 5 -45 24 -39 25 -45 5 -45 -9 0 -25 16 -36 35 -12 19 -27 35 -35 35
-9 0 -14 -12 -14 -35 0 -24 -5 -35 -15 -35 -12 0 -15 17 -15 91 l0 92 45 -5
c25 -3 52 -11 60 -18z"/>
<path d="M11150 2615 c0 -20 5 -25 24 -25 33 0 44 20 21 37 -28 20 -45 16 -45
-12z"/>
<path d="M8670 2275 c-29 -88 -66 -195 -81 -237 l-28 -78 164 0 164 0 -70 203
c-39 111 -77 218 -83 237 l-13 35 -53 -160z"/>
</g>
</svg>
